<?xml version="1.0" encoding="iso-8859-1"?>
<!-- Generator: Adobe Illustrator 19.0.0, SVG Export Plug-In . SVG Version: 6.00 Build 0)  -->
<svg version="1.1" id="Layer_1" xmlns="http://www.w3.org/2000/svg" xmlns:xlink="http://www.w3.org/1999/xlink" x="0px" y="0px"
	 viewBox="0 0 512 512" style="enable-background:new 0 0 512 512;" xml:space="preserve">
<g>
	<g>
		<g>
			<path d="M501.551,318.345H10.449C4.678,318.345,0,323.023,0,328.794V475.08c0,5.771,4.678,10.449,10.449,10.449h491.102
				c5.771,0,10.449-4.678,10.449-10.449V328.794C512,323.023,507.322,318.345,501.551,318.345z M491.102,464.631H20.898V339.243
				h470.204V464.631z"/>
			<path d="M43.196,422.835c1.935,3.352,5.447,5.226,9.058,5.226c1.772,0,3.569-0.451,5.215-1.401l11.474-6.625v13.249
				c0,5.771,4.678,10.449,10.449,10.449c5.771,0,10.449-4.678,10.449-10.449v-13.248l11.473,6.625
				c1.646,0.95,3.442,1.401,5.215,1.401c3.611,0,7.123-1.874,9.058-5.226c2.886-4.998,1.173-11.388-3.824-14.273l-11.474-6.625
				l11.474-6.625c4.998-2.885,6.71-9.276,3.824-14.273c-2.886-4.999-9.276-6.71-14.273-3.824l-11.473,6.625v-13.248
				c0-5.771-4.678-10.449-10.449-10.449c-5.771,0-10.449,4.678-10.449,10.449v13.249l-11.474-6.627
				c-4.996-2.885-11.388-1.173-14.273,3.824c-2.886,4.998-1.173,11.388,3.824,14.273l11.474,6.625l-11.474,6.625
				C42.023,411.447,40.31,417.837,43.196,422.835z"/>
			<path d="M143.11,395.315l11.474,6.625l-11.474,6.625c-4.997,2.883-6.709,9.273-3.824,14.271c1.935,3.352,5.447,5.226,9.058,5.226
				c1.772,0,3.569-0.451,5.215-1.401l11.474-6.625v13.249c0,5.771,4.678,10.449,10.449,10.449c5.771,0,10.449-4.678,10.449-10.449
				v-13.248l11.473,6.625c1.646,0.95,3.442,1.401,5.215,1.401c3.611,0,7.123-1.874,9.058-5.226
				c2.886-4.998,1.173-11.388-3.824-14.273l-11.474-6.625l11.474-6.625c4.998-2.885,6.71-9.276,3.824-14.273
				c-2.885-4.999-9.277-6.71-14.273-3.824l-11.473,6.625v-13.248c0-5.771-4.678-10.449-10.449-10.449
				c-5.771,0-10.449,4.678-10.449,10.449v13.249l-11.474-6.625c-4.996-2.885-11.387-1.173-14.273,3.824
				C136.4,386.039,138.113,392.43,143.11,395.315z"/>
			<path d="M235.377,422.835c1.935,3.352,5.447,5.226,9.058,5.226c1.772,0,3.569-0.451,5.215-1.401l11.474-6.625v13.249
				c0,5.771,4.678,10.449,10.449,10.449c5.771,0,10.449-4.678,10.449-10.449v-13.249l11.474,6.625
				c1.646,0.95,3.442,1.401,5.215,1.401c3.611,0,7.123-1.874,9.058-5.226c2.886-4.998,1.173-11.388-3.824-14.273l-11.474-6.625
				l11.474-6.625c4.998-2.885,6.71-9.276,3.824-14.273c-2.885-4.998-9.277-6.71-14.273-3.824l-11.474,6.625V370.59
				c0-5.771-4.678-10.449-10.449-10.449c-5.771,0-10.449,4.678-10.449,10.449v13.249l-11.474-6.625
				c-4.999-2.885-11.388-1.174-14.273,3.824c-2.886,4.998-1.173,11.388,3.824,14.273l11.474,6.625l-11.474,6.625
				C234.203,411.447,232.491,417.837,235.377,422.835z"/>
			<path d="M331.468,422.835c1.935,3.352,5.447,5.226,9.058,5.226c1.772,0,3.569-0.451,5.215-1.401l11.473-6.625v13.248
				c0,5.771,4.678,10.449,10.449,10.449c5.771,0,10.449-4.678,10.449-10.449v-13.249l11.474,6.625
				c1.646,0.95,3.442,1.401,5.215,1.401c3.611,0,7.123-1.873,9.058-5.226c2.886-4.998,1.173-11.388-3.824-14.273l-11.474-6.625
				l11.474-6.625c4.998-2.885,6.71-9.276,3.824-14.273c-2.886-4.999-9.276-6.71-14.273-3.824l-11.474,6.625v-13.249
				c0-5.771-4.678-10.449-10.449-10.449c-5.771,0-10.449,4.678-10.449,10.449v13.248l-11.473-6.625
				c-4.996-2.885-11.387-1.173-14.273,3.824c-2.886,4.998-1.173,11.388,3.824,14.273l11.474,6.625l-11.474,6.625
				C330.294,411.447,328.582,417.837,331.468,422.835z"/>
			<path d="M430.498,443.733h28.735c5.771,0,10.449-4.678,10.449-10.449c0-5.771-4.678-10.449-10.449-10.449h-28.735
				c-5.771,0-10.449,4.678-10.449,10.449C420.049,439.055,424.727,443.733,430.498,443.733z"/>
			<path d="M176.936,303.368h158.129c14.019,0,25.426-11.406,25.426-25.425V156.386c0-14.019-11.406-25.426-25.426-25.426h-0.697
				v-26.122c0-43.212-35.156-78.367-78.367-78.367c-43.212,0-78.367,35.156-78.367,78.367v26.122h-0.697
				c-14.019,0-25.426,11.406-25.426,25.426v121.556C151.51,291.962,162.916,303.368,176.936,303.368z M198.531,104.837
				c0-31.689,25.781-57.469,57.469-57.469s57.469,25.781,57.469,57.469v26.122h-20.898v-26.122
				c0-20.166-16.406-36.571-36.571-36.571c-20.165,0-36.571,16.406-36.571,36.571v26.122h-20.898V104.837z M271.673,104.837v26.122
				h-31.347v-26.122c0-8.642,7.031-15.673,15.673-15.673C264.642,89.164,271.673,96.195,271.673,104.837z M172.408,156.386
				c0-2.497,2.031-4.528,4.528-4.528h158.129c2.496,0,4.528,2.031,4.528,4.528v121.556c0,2.497-2.031,4.528-4.528,4.528H176.936
				c-2.496,0-4.528-2.031-4.528-4.528V156.386z"/>
			<path d="M298.514,227.613h0.206c5.771,0,10.449-4.678,10.449-10.449c0-5.771-4.678-10.449-10.449-10.449h-0.206
				c-5.771,0-10.449,4.678-10.449,10.449C288.065,222.935,292.744,227.613,298.514,227.613z"/>
			<path d="M213.279,227.613h47.945c5.771,0,10.449-4.678,10.449-10.449c0-5.771-4.678-10.449-10.449-10.449h-47.945
				c-5.771,0-10.449,4.678-10.449,10.449C202.83,222.935,207.508,227.613,213.279,227.613z"/>
		</g>
	</g>
</g>
<g>
</g>
<g>
</g>
<g>
</g>
<g>
</g>
<g>
</g>
<g>
</g>
<g>
</g>
<g>
</g>
<g>
</g>
<g>
</g>
<g>
</g>
<g>
</g>
<g>
</g>
<g>
</g>
<g>
</g>
</svg>
